<svg width="80" height="80" viewBox="0 0 80 80" fill="none" xmlns="http://www.w3.org/2000/svg">
<path d="M37.04 3.11992C34.48 4.31992 33.36 5.51992 31.92 8.55992L30.16 12.5599L26.48 12.2399C20.16 11.6799 14.4 16.9599 14.4 23.3599C14.4 27.3599 15.52 27.7599 18.88 24.8799C22.4 21.7599 24.32 21.5199 23.2 24.4799C21.52 28.8799 23.36 36.7999 26 36.7999C28.16 36.7999 34.72 29.5199 35.84 25.9199L36.8 22.6399L40.16 23.2799C42.08 23.5999 46.56 23.9199 50.24 23.9999C57.92 23.9999 58.72 23.2799 56 18.8799C53.84 15.2799 49.36 12.5599 44.8 11.9999L41.2 11.5999L43.52 9.99992C44.8 9.19992 47.28 8.31992 49.12 7.99992C53.76 7.43992 53.84 5.43992 49.36 3.27992C45.12 1.19992 41.44 1.19992 37.04 3.11992Z" fill="#42C1CA"/>
<path d="M38.4 28.48C37.92 29.6 37.84 32.96 38.08 35.92L38.64 41.36L43.28 41.84C45.84 42.16 48.4 42.48 48.96 42.56C50.64 42.96 49.84 36.16 47.6 31.52C45.92 28.16 45.12 27.28 43.12 26.88C39.44 26.16 39.2 26.24 38.4 28.48Z" fill="#42C1CA"/>
<path d="M31.3601 46.08C25.9201 47.52 21.2001 50.24 17.3601 54.24L14.3201 57.36L16.4001 58.72C20.0001 61.04 23.4401 61.2 27.5201 59.12L31.2001 57.28L34.7201 59.04C39.0401 61.28 40.9601 61.28 45.2801 59.04L48.8001 57.28L52.4801 59.12C56.5601 61.2 60.0001 61.04 63.6001 58.72L65.6801 57.36L62.6401 54.24C54.8001 46.16 42.6401 43.04 31.3601 46.08Z" fill="#42C1CA"/>
<path d="M10.64 62.16C9.60003 62.8 6.96002 63.6 4.64002 63.92C1.60002 64.24 0.400024 64.72 0.400024 65.6C0.400024 67.36 5.92002 67.6 10 66.08C12.96 64.88 13.6 64.88 16.24 66C19.92 67.52 23.92 67.52 27.84 66C30.56 64.88 31.2 64.88 34.32 66C36.24 66.64 38.8 67.2 40 67.2C41.2 67.2 43.76 66.64 45.68 66C48.8 64.88 49.44 64.88 52.16 66C56.08 67.52 59.92 67.52 63.84 66C66.56 64.88 67.2 64.88 69.84 66C74.88 68.08 80.8 67.28 79.76 64.56C79.44 63.6 78.56 63.44 76.48 63.76C74.56 64.08 72.64 63.68 70.24 62.48L66.72 60.8L63.6 62.4C59.6 64.4 56 64.4 52 62.4L48.8 60.8L45.84 62.4C42 64.4 38 64.4 34.16 62.4L31.2 60.8L28 62.4C24 64.4 20.4 64.4 16.4 62.4C12.72 60.56 12.88 60.56 10.64 62.16Z" fill="#42C1CA"/>
<path d="M10.64 68.56C9.60003 69.2 6.96002 70 4.64002 70.32C1.60002 70.64 0.400024 71.12 0.400024 72C0.400024 73.68 6.32002 74 10 72.48C12.64 71.36 13.36 71.36 16.56 72.4C21.04 73.92 24 73.92 27.84 72.4C30.56 71.28 31.2 71.28 34.32 72.4C36.24 73.04 38.8 73.6 40 73.6C41.2 73.6 43.76 73.04 45.68 72.4C48.8 71.28 49.44 71.28 52.16 72.4C56 73.92 58.96 73.92 63.44 72.4C66.64 71.36 67.36 71.36 69.84 72.4C74.96 74.48 80.8 73.6 79.76 70.96C79.44 70 78.56 69.84 76.48 70.16C74.56 70.48 72.64 70.08 70.24 68.88L66.72 67.2L63.6 68.8C59.6 70.8 56 70.8 52 68.8L48.8 67.2L45.84 68.8C44.16 69.68 41.52 70.4 40 70.4C38.48 70.4 35.84 69.68 34.16 68.8L31.2 67.2L28 68.8C24 70.8 20.4 70.8 16.4 68.8C12.72 66.96 12.88 66.96 10.64 68.56Z" fill="#42C1CA"/>
</svg>
